<svg width="1300" height="334" viewBox="0 0 1300 334" fill="none" xmlns="http://www.w3.org/2000/svg">
<path d="M4.76837e-07 327C5.06667 322.2 9.06667 313.133 12 299.8C15.2 286.2 16.8 271 16.8 254.2V79.4C16.8 62.6 15.2 47.5333 12 34.2C9.06667 20.6 5.06667 11.4 4.76837e-07 6.59998H197.6V37.8C190.667 30.6 182.133 25 172 21C161.867 16.7333 146.133 14.6 124.8 14.6H80.4C70.2667 14.6 62.6667 17.5333 57.6 23.4C52.8 29.2666 49.7333 36.6 48.4 45.4C47.3333 53.9333 46.8 65.2667 46.8 79.4V161.8C51.0667 154.067 57.2 148.6 65.2 145.4C73.2 141.933 83.3333 140.2 95.6 140.2H108.8C124.533 140.2 139.2 138.067 152.8 133.8C166.667 129.533 176.267 124.6 181.6 119V169.4C176.267 163.8 166.667 158.867 152.8 154.6C139.2 150.333 124.533 148.2 108.8 148.2H95.6C78.5333 148.2 66.1333 152.2 58.4 160.2C50.6667 167.933 46.8 181.533 46.8 201V254.2C46.8 268.333 47.3333 279.8 48.4 288.6C49.7333 297.133 52.8 304.333 57.6 310.2C62.6667 316.067 70.4 319 80.8 319H122C144.933 319 162.533 315.667 174.8 309C187.333 302.067 197.6 294.067 205.6 285L196 319L193.6 327H4.76837e-07ZM336.981 181.4L293.381 257.4C277.381 286.2 269.381 306.867 269.381 319.4C269.381 322.6 269.915 325.133 270.981 327H227.781C234.715 324.067 242.448 317.4 250.981 307C259.781 296.333 268.715 283.4 277.781 268.2L283.781 257.8L284.181 257L332.581 173L278.181 76.6C268.048 58.4667 258.048 43.1333 248.181 30.6C238.315 18.0666 229.515 10.0666 221.781 6.59998H290.981C289.915 8.46665 289.381 11 289.381 14.2C289.381 25.9333 296.448 45 310.581 71.4L353.781 148.6L397.381 73.8C412.315 46.0667 419.781 26.3333 419.781 14.6C419.781 11.1333 419.248 8.46665 418.181 6.59998H461.381C453.648 10.0666 444.848 18.0666 434.981 30.6C425.115 43.1333 415.115 58.4667 404.981 76.6L358.581 156.6L414.981 257C425.115 275.133 435.115 290.467 444.981 303C454.848 315.533 463.648 323.533 471.381 327H418.981L336.981 181.4ZM597.084 333.4C573.618 333.4 552.018 327.267 532.284 315C512.551 302.467 496.818 283.667 485.084 258.6C473.351 233.267 467.484 202.6 467.484 166.6C467.484 130.6 473.351 100.2 485.084 75.4C496.818 50.3333 512.551 31.6666 532.284 19.4C552.018 6.86665 573.618 0.599982 597.084 0.599982C620.551 0.599982 642.151 6.86665 661.884 19.4C681.884 31.6666 697.751 50.3333 709.484 75.4C721.484 100.467 727.484 130.867 727.484 166.6C727.484 202.6 721.484 233.133 709.484 258.2C697.751 283.267 681.884 302.067 661.884 314.6C642.151 327.133 620.551 333.4 597.084 333.4ZM502.284 166.6C505.484 204.733 512.684 235.4 523.884 258.6C535.084 281.8 548.284 298.333 563.484 308.2C578.684 317.8 594.551 322.6 611.084 322.6C634.551 322.6 654.151 313 669.884 293.8C685.884 274.333 693.884 242.467 693.884 198.2C693.884 188.333 693.484 177.8 692.684 166.6C689.484 128.467 682.151 97.9333 670.684 75C659.484 51.8 646.151 35.4 630.684 25.8C615.484 16.2 599.618 11.4 583.084 11.4C559.884 11.4 540.418 21 524.684 40.2C508.951 59.4 501.084 91 501.084 135C501.084 144.867 501.484 155.4 502.284 166.6ZM545.084 166.6C553.884 166.6 562.284 164.2 570.284 159.4C578.551 154.333 585.218 146.6 590.284 136.2C595.618 125.533 598.284 112.333 598.284 96.6C598.284 120.067 603.351 137.667 613.484 149.4C623.884 160.867 636.551 166.6 651.484 166.6C642.151 166.6 633.351 169.133 625.084 174.2C617.084 179.267 610.551 187.133 605.484 197.8C600.684 208.2 598.284 221.133 598.284 236.6C598.284 221.4 595.618 208.6 590.284 198.2C585.218 187.533 578.551 179.667 570.284 174.6C562.284 169.267 553.884 166.6 545.084 166.6ZM747.656 327C752.723 322.2 756.723 313.133 759.656 299.8C762.856 286.2 764.456 271 764.456 254.2V79.4C764.456 62.6 762.856 47.5333 759.656 34.2C756.723 20.6 752.723 11.4 747.656 6.59998H791.256C797.923 6.59998 805.523 5.53332 814.056 3.39999C815.39 3.13331 818.19 2.59998 822.456 1.79999C826.723 0.999985 831.123 0.599982 835.656 0.599982C859.123 0.599982 880.723 6.86665 900.456 19.4C920.456 31.6666 936.323 50.3333 948.056 75.4C960.056 100.467 966.056 130.867 966.056 166.6C966.056 202.333 960.19 232.867 948.456 258.2C936.99 283.267 921.923 302.067 903.256 314.6C884.856 327.133 865.256 333.4 844.456 333.4C832.99 333.4 822.19 332.067 812.056 329.4C804.59 327.8 798.723 327 794.456 327H747.656ZM794.456 254.2C794.456 279.267 800.056 297.267 811.256 308.2C822.456 319.133 835.256 324.6 849.656 324.6C864.323 324.6 877.79 320.6 890.056 312.6C902.59 304.333 912.723 290.867 920.456 272.2C928.456 253.267 932.456 228.6 932.456 198.2C932.456 188.333 932.056 177.8 931.256 166.6C928.056 129 920.99 98.4666 910.056 75C899.123 51.2666 886.723 34.3333 872.856 24.2C859.256 13.8 846.323 8.59997 834.056 8.59997C817.523 8.59997 806.723 15 801.656 27.8C796.856 40.3333 794.456 57.4 794.456 79V254.2ZM985.938 327C991.004 322.2 995.004 313.133 997.938 299.8C1001.14 286.2 1002.74 271 1002.74 254.2V79.4C1002.74 62.6 1001.14 47.5333 997.938 34.2C995.004 20.6 991.004 11.4 985.938 6.59998H1049.54C1044.47 11.4 1040.34 20.6 1037.14 34.2C1034.2 47.5333 1032.74 62.6 1032.74 79.4V254.2C1032.74 271 1034.2 286.2 1037.14 299.8C1040.34 313.133 1044.47 322.2 1049.54 327H985.938ZM1232.64 327C1236.1 323.8 1237.84 318.6 1237.84 311.4C1237.84 305.533 1236.64 298.333 1234.24 289.8C1232.1 281.267 1228.77 270.333 1224.24 257L1199.84 189.8C1200.64 199.667 1201.04 209.4 1201.04 219C1201.04 253.933 1194.5 280.867 1181.44 299.8C1168.37 318.733 1148.37 328.2 1121.44 328.2C1102.24 328.2 1088.1 323.267 1079.04 313.4C1069.97 303.533 1065.44 289.8 1065.44 272.2C1065.44 253.533 1069.97 231.8 1079.04 207L1139.84 38.2C1131.3 23.8 1123.44 13.2667 1116.24 6.59998H1165.84L1257.84 259.4C1263.97 274.333 1270.9 287.933 1278.64 300.2C1286.64 312.467 1293.57 321.4 1299.44 327H1232.64ZM1087.84 206.2C1077.97 233.667 1073.04 255.8 1073.04 272.6C1073.04 304.333 1089.17 320.2 1121.44 320.2C1135.3 320.2 1146.5 314.733 1155.04 303.8C1163.84 292.867 1169.57 277.133 1172.24 256.6C1173.3 241.667 1170.5 230.467 1163.84 223C1157.17 215.267 1147.7 211 1135.44 210.2L1171.84 191.8L1196.24 179.8L1157.84 74.2C1154.1 65.1333 1149.84 56.0667 1145.04 47L1087.84 206.2Z" fill="white"/>
</svg>
